<mxfile host="Electron" agent="Mozilla/5.0 (Macintosh; Intel Mac OS X 10_15_7) AppleWebKit/537.36 (KHTML, like Gecko) draw.io/24.7.17 Chrome/128.0.6613.36 Electron/32.0.1 Safari/537.36" version="24.7.17">
  <diagram id="Yk2K_u58qDk7ZRmMdMYW" name="Page-1">
    <mxGraphModel dx="1114" dy="824" grid="1" gridSize="10" guides="1" tooltips="1" connect="1" arrows="1" fold="1" page="1" pageScale="1" pageWidth="827" pageHeight="1169" math="0" shadow="0">
      <root>
        <mxCell id="0" />
        <mxCell id="1" parent="0" />
        <mxCell id="kiROTx1vgatypAMxlg51-10" value="&lt;font face=&quot;Times New Roman&quot; style=&quot;font-size: 14px;&quot;&gt;&lt;b&gt;Minimum &amp;amp; Maximum Participation&lt;/b&gt;&lt;/font&gt;" style="text;html=1;align=center;verticalAlign=middle;whiteSpace=wrap;rounded=0;" parent="1" vertex="1">
          <mxGeometry x="580" y="160" width="240" height="30" as="geometry" />
        </mxCell>
        <mxCell id="kiROTx1vgatypAMxlg51-54" value="" style="group" parent="1" vertex="1" connectable="0">
          <mxGeometry x="110" y="550" width="530" height="80" as="geometry" />
        </mxCell>
        <mxCell id="kiROTx1vgatypAMxlg51-23" value="" style="rhombus;whiteSpace=wrap;html=1;" parent="kiROTx1vgatypAMxlg51-54" vertex="1">
          <mxGeometry x="190" width="150" height="80" as="geometry" />
        </mxCell>
        <mxCell id="kiROTx1vgatypAMxlg51-24" value="" style="endArrow=none;html=1;rounded=0;" parent="kiROTx1vgatypAMxlg51-54" edge="1">
          <mxGeometry width="50" height="50" relative="1" as="geometry">
            <mxPoint x="340" y="39.47000000000003" as="sourcePoint" />
            <mxPoint x="410" y="39.47000000000003" as="targetPoint" />
          </mxGeometry>
        </mxCell>
        <mxCell id="kiROTx1vgatypAMxlg51-25" value="" style="endArrow=none;html=1;rounded=0;" parent="kiROTx1vgatypAMxlg51-54" edge="1">
          <mxGeometry width="50" height="50" relative="1" as="geometry">
            <mxPoint x="120" y="39.47000000000003" as="sourcePoint" />
            <mxPoint x="190" y="39.47000000000003" as="targetPoint" />
          </mxGeometry>
        </mxCell>
        <mxCell id="kiROTx1vgatypAMxlg51-28" value="Min..Max" style="text;html=1;align=center;verticalAlign=middle;whiteSpace=wrap;rounded=0;" parent="kiROTx1vgatypAMxlg51-54" vertex="1">
          <mxGeometry x="340" y="10" width="60" height="30" as="geometry" />
        </mxCell>
        <mxCell id="kiROTx1vgatypAMxlg51-29" value="Min..Max" style="text;html=1;align=center;verticalAlign=middle;whiteSpace=wrap;rounded=0;" parent="kiROTx1vgatypAMxlg51-54" vertex="1">
          <mxGeometry x="130" y="10" width="60" height="30" as="geometry" />
        </mxCell>
        <mxCell id="kiROTx1vgatypAMxlg51-47" value="" style="rounded=1;whiteSpace=wrap;html=1;" parent="kiROTx1vgatypAMxlg51-54" vertex="1">
          <mxGeometry x="410" y="10" width="120" height="60" as="geometry" />
        </mxCell>
        <mxCell id="kiROTx1vgatypAMxlg51-48" value="" style="rounded=1;whiteSpace=wrap;html=1;" parent="kiROTx1vgatypAMxlg51-54" vertex="1">
          <mxGeometry y="10" width="120" height="60" as="geometry" />
        </mxCell>
        <mxCell id="kiROTx1vgatypAMxlg51-55" value="" style="group" parent="1" vertex="1" connectable="0">
          <mxGeometry x="110" y="650" width="530" height="80" as="geometry" />
        </mxCell>
        <mxCell id="kiROTx1vgatypAMxlg51-1" value="" style="rhombus;whiteSpace=wrap;html=1;" parent="kiROTx1vgatypAMxlg51-55" vertex="1">
          <mxGeometry x="190" width="150" height="80" as="geometry" />
        </mxCell>
        <mxCell id="kiROTx1vgatypAMxlg51-12" value="" style="endArrow=none;html=1;rounded=0;" parent="kiROTx1vgatypAMxlg51-55" edge="1">
          <mxGeometry width="50" height="50" relative="1" as="geometry">
            <mxPoint x="340" y="39.47000000000003" as="sourcePoint" />
            <mxPoint x="410" y="39.47000000000003" as="targetPoint" />
          </mxGeometry>
        </mxCell>
        <mxCell id="kiROTx1vgatypAMxlg51-13" value="" style="endArrow=none;html=1;rounded=0;" parent="kiROTx1vgatypAMxlg51-55" edge="1">
          <mxGeometry width="50" height="50" relative="1" as="geometry">
            <mxPoint x="120" y="39.47000000000003" as="sourcePoint" />
            <mxPoint x="190" y="39.47000000000003" as="targetPoint" />
          </mxGeometry>
        </mxCell>
        <mxCell id="kiROTx1vgatypAMxlg51-21" value="35...45" style="text;html=1;align=center;verticalAlign=middle;whiteSpace=wrap;rounded=0;" parent="kiROTx1vgatypAMxlg51-55" vertex="1">
          <mxGeometry x="340" y="10" width="60" height="30" as="geometry" />
        </mxCell>
        <mxCell id="kiROTx1vgatypAMxlg51-22" value="1...1" style="text;html=1;align=center;verticalAlign=middle;whiteSpace=wrap;rounded=0;" parent="kiROTx1vgatypAMxlg51-55" vertex="1">
          <mxGeometry x="130" y="10" width="60" height="30" as="geometry" />
        </mxCell>
        <mxCell id="kiROTx1vgatypAMxlg51-50" value="Students" style="rounded=1;whiteSpace=wrap;html=1;" parent="kiROTx1vgatypAMxlg51-55" vertex="1">
          <mxGeometry x="410" y="10" width="120" height="60" as="geometry" />
        </mxCell>
        <mxCell id="kiROTx1vgatypAMxlg51-51" value="Students" style="rounded=1;whiteSpace=wrap;html=1;" parent="kiROTx1vgatypAMxlg51-55" vertex="1">
          <mxGeometry y="10" width="120" height="60" as="geometry" />
        </mxCell>
        <mxCell id="kiROTx1vgatypAMxlg51-56" value="" style="group" parent="1" vertex="1" connectable="0">
          <mxGeometry x="110" y="750" width="530" height="80" as="geometry" />
        </mxCell>
        <mxCell id="kiROTx1vgatypAMxlg51-30" value="" style="rhombus;whiteSpace=wrap;html=1;" parent="kiROTx1vgatypAMxlg51-56" vertex="1">
          <mxGeometry x="190" width="150" height="80" as="geometry" />
        </mxCell>
        <mxCell id="kiROTx1vgatypAMxlg51-31" value="" style="endArrow=none;html=1;rounded=0;" parent="kiROTx1vgatypAMxlg51-56" edge="1">
          <mxGeometry width="50" height="50" relative="1" as="geometry">
            <mxPoint x="340" y="39.47000000000003" as="sourcePoint" />
            <mxPoint x="410" y="39.47000000000003" as="targetPoint" />
          </mxGeometry>
        </mxCell>
        <mxCell id="kiROTx1vgatypAMxlg51-32" value="" style="endArrow=none;html=1;rounded=0;" parent="kiROTx1vgatypAMxlg51-56" edge="1">
          <mxGeometry width="50" height="50" relative="1" as="geometry">
            <mxPoint x="120" y="39.47000000000003" as="sourcePoint" />
            <mxPoint x="190" y="39.47000000000003" as="targetPoint" />
          </mxGeometry>
        </mxCell>
        <mxCell id="kiROTx1vgatypAMxlg51-35" value="35...*" style="text;html=1;align=center;verticalAlign=middle;whiteSpace=wrap;rounded=0;" parent="kiROTx1vgatypAMxlg51-56" vertex="1">
          <mxGeometry x="340" y="10" width="60" height="30" as="geometry" />
        </mxCell>
        <mxCell id="kiROTx1vgatypAMxlg51-36" value="1...1" style="text;html=1;align=center;verticalAlign=middle;whiteSpace=wrap;rounded=0;" parent="kiROTx1vgatypAMxlg51-56" vertex="1">
          <mxGeometry x="130" y="10" width="60" height="30" as="geometry" />
        </mxCell>
        <mxCell id="kiROTx1vgatypAMxlg51-52" value="Students" style="rounded=1;whiteSpace=wrap;html=1;" parent="kiROTx1vgatypAMxlg51-56" vertex="1">
          <mxGeometry x="410" y="10" width="120" height="60" as="geometry" />
        </mxCell>
        <mxCell id="kiROTx1vgatypAMxlg51-53" value="Students" style="rounded=1;whiteSpace=wrap;html=1;" parent="kiROTx1vgatypAMxlg51-56" vertex="1">
          <mxGeometry y="10" width="120" height="60" as="geometry" />
        </mxCell>
        <mxCell id="kiROTx1vgatypAMxlg51-57" value="" style="group" parent="1" vertex="1" connectable="0">
          <mxGeometry x="470" y="320" width="290" height="80" as="geometry" />
        </mxCell>
        <mxCell id="kiROTx1vgatypAMxlg51-2" value="" style="rhombus;whiteSpace=wrap;html=1;" parent="kiROTx1vgatypAMxlg51-57" vertex="1">
          <mxGeometry x="70" width="150" height="80" as="geometry" />
        </mxCell>
        <mxCell id="kiROTx1vgatypAMxlg51-11" value="" style="endArrow=none;html=1;rounded=0;" parent="kiROTx1vgatypAMxlg51-57" source="kiROTx1vgatypAMxlg51-14" edge="1">
          <mxGeometry width="50" height="50" relative="1" as="geometry">
            <mxPoint x="220" y="39.47000000000003" as="sourcePoint" />
            <mxPoint x="290" y="39.47000000000003" as="targetPoint" />
          </mxGeometry>
        </mxCell>
        <mxCell id="kiROTx1vgatypAMxlg51-15" value="" style="endArrow=none;html=1;rounded=0;" parent="kiROTx1vgatypAMxlg51-57" target="kiROTx1vgatypAMxlg51-14" edge="1">
          <mxGeometry width="50" height="50" relative="1" as="geometry">
            <mxPoint x="220" y="39.47000000000003" as="sourcePoint" />
            <mxPoint x="290" y="39.47000000000003" as="targetPoint" />
          </mxGeometry>
        </mxCell>
        <mxCell id="kiROTx1vgatypAMxlg51-14" value="" style="triangle;whiteSpace=wrap;html=1;direction=west;" parent="kiROTx1vgatypAMxlg51-57" vertex="1">
          <mxGeometry x="230" y="30" width="20" height="20" as="geometry" />
        </mxCell>
        <mxCell id="kiROTx1vgatypAMxlg51-17" value="" style="endArrow=none;html=1;rounded=0;" parent="kiROTx1vgatypAMxlg51-57" source="kiROTx1vgatypAMxlg51-16" edge="1">
          <mxGeometry width="50" height="50" relative="1" as="geometry">
            <mxPoint y="39.47000000000003" as="sourcePoint" />
            <mxPoint x="70" y="39.47000000000003" as="targetPoint" />
          </mxGeometry>
        </mxCell>
        <mxCell id="kiROTx1vgatypAMxlg51-18" value="" style="endArrow=none;html=1;rounded=0;" parent="kiROTx1vgatypAMxlg51-57" target="kiROTx1vgatypAMxlg51-16" edge="1">
          <mxGeometry width="50" height="50" relative="1" as="geometry">
            <mxPoint y="39.47000000000003" as="sourcePoint" />
            <mxPoint x="70" y="39.47000000000003" as="targetPoint" />
          </mxGeometry>
        </mxCell>
        <mxCell id="kiROTx1vgatypAMxlg51-16" value="" style="triangle;whiteSpace=wrap;html=1;" parent="kiROTx1vgatypAMxlg51-57" vertex="1">
          <mxGeometry x="40" y="30" width="20" height="20" as="geometry" />
        </mxCell>
        <mxCell id="kiROTx1vgatypAMxlg51-58" value="" style="group" parent="1" vertex="1" connectable="0">
          <mxGeometry x="125" y="320" width="290" height="80" as="geometry" />
        </mxCell>
        <mxCell id="kiROTx1vgatypAMxlg51-37" value="" style="rhombus;whiteSpace=wrap;html=1;" parent="kiROTx1vgatypAMxlg51-58" vertex="1">
          <mxGeometry x="70" width="150" height="80" as="geometry" />
        </mxCell>
        <mxCell id="kiROTx1vgatypAMxlg51-38" value="" style="endArrow=none;html=1;rounded=0;" parent="kiROTx1vgatypAMxlg51-58" edge="1">
          <mxGeometry width="50" height="50" relative="1" as="geometry">
            <mxPoint y="40" as="sourcePoint" />
            <mxPoint x="70" y="40" as="targetPoint" />
          </mxGeometry>
        </mxCell>
        <mxCell id="kiROTx1vgatypAMxlg51-39" value="" style="endArrow=none;html=1;rounded=0;" parent="kiROTx1vgatypAMxlg51-58" edge="1">
          <mxGeometry width="50" height="50" relative="1" as="geometry">
            <mxPoint x="220" y="39.47000000000003" as="sourcePoint" />
            <mxPoint x="290" y="39.47000000000003" as="targetPoint" />
          </mxGeometry>
        </mxCell>
        <mxCell id="kiROTx1vgatypAMxlg51-59" value="" style="group" parent="1" vertex="1" connectable="0">
          <mxGeometry x="90" y="200" width="310" height="80" as="geometry" />
        </mxCell>
        <mxCell id="kiROTx1vgatypAMxlg51-4" value="" style="rhombus;whiteSpace=wrap;html=1;" parent="kiROTx1vgatypAMxlg51-59" vertex="1">
          <mxGeometry x="90" width="150" height="80" as="geometry" />
        </mxCell>
        <mxCell id="kiROTx1vgatypAMxlg51-5" value="" style="endArrow=classic;html=1;rounded=0;" parent="kiROTx1vgatypAMxlg51-59" edge="1">
          <mxGeometry width="50" height="50" relative="1" as="geometry">
            <mxPoint x="90" y="39.47" as="sourcePoint" />
            <mxPoint y="39.47" as="targetPoint" />
          </mxGeometry>
        </mxCell>
        <mxCell id="kiROTx1vgatypAMxlg51-6" value="" style="endArrow=classic;html=1;rounded=0;" parent="kiROTx1vgatypAMxlg51-59" edge="1">
          <mxGeometry width="50" height="50" relative="1" as="geometry">
            <mxPoint x="240" y="40" as="sourcePoint" />
            <mxPoint x="310" y="40" as="targetPoint" />
          </mxGeometry>
        </mxCell>
        <mxCell id="kiROTx1vgatypAMxlg51-60" value="" style="group" parent="1" vertex="1" connectable="0">
          <mxGeometry x="460" y="200" width="290" height="80" as="geometry" />
        </mxCell>
        <mxCell id="kiROTx1vgatypAMxlg51-3" value="" style="rhombus;whiteSpace=wrap;html=1;" parent="kiROTx1vgatypAMxlg51-60" vertex="1">
          <mxGeometry x="70" width="150" height="80" as="geometry" />
        </mxCell>
        <mxCell id="kiROTx1vgatypAMxlg51-7" value="" style="endArrow=none;html=1;rounded=0;" parent="kiROTx1vgatypAMxlg51-60" edge="1">
          <mxGeometry width="50" height="50" relative="1" as="geometry">
            <mxPoint y="40" as="sourcePoint" />
            <mxPoint x="70" y="40" as="targetPoint" />
          </mxGeometry>
        </mxCell>
        <mxCell id="kiROTx1vgatypAMxlg51-9" value="" style="endArrow=none;html=1;rounded=0;" parent="kiROTx1vgatypAMxlg51-60" edge="1">
          <mxGeometry width="50" height="50" relative="1" as="geometry">
            <mxPoint x="220" y="39.47" as="sourcePoint" />
            <mxPoint x="290" y="39.47" as="targetPoint" />
          </mxGeometry>
        </mxCell>
        <mxCell id="kiROTx1vgatypAMxlg51-43" value="" style="group;rotation=-45;" parent="kiROTx1vgatypAMxlg51-60" vertex="1" connectable="0">
          <mxGeometry x="250" y="32" width="14" height="14" as="geometry" />
        </mxCell>
        <mxCell id="kiROTx1vgatypAMxlg51-40" value="" style="endArrow=none;html=1;rounded=0;" parent="kiROTx1vgatypAMxlg51-43" edge="1">
          <mxGeometry width="50" height="50" relative="1" as="geometry">
            <mxPoint x="4" y="14" as="sourcePoint" />
            <mxPoint x="4" as="targetPoint" />
          </mxGeometry>
        </mxCell>
        <mxCell id="kiROTx1vgatypAMxlg51-42" value="" style="endArrow=none;html=1;rounded=0;" parent="kiROTx1vgatypAMxlg51-43" edge="1">
          <mxGeometry width="50" height="50" relative="1" as="geometry">
            <mxPoint x="10" y="14" as="sourcePoint" />
            <mxPoint x="10" as="targetPoint" />
          </mxGeometry>
        </mxCell>
        <mxCell id="kiROTx1vgatypAMxlg51-44" value="" style="group;rotation=-45;" parent="kiROTx1vgatypAMxlg51-60" vertex="1" connectable="0">
          <mxGeometry x="30" y="32" width="14" height="14" as="geometry" />
        </mxCell>
        <mxCell id="kiROTx1vgatypAMxlg51-45" value="" style="endArrow=none;html=1;rounded=0;" parent="kiROTx1vgatypAMxlg51-44" edge="1">
          <mxGeometry width="50" height="50" relative="1" as="geometry">
            <mxPoint x="4" y="14" as="sourcePoint" />
            <mxPoint x="4" as="targetPoint" />
          </mxGeometry>
        </mxCell>
        <mxCell id="kiROTx1vgatypAMxlg51-46" value="" style="endArrow=none;html=1;rounded=0;" parent="kiROTx1vgatypAMxlg51-44" edge="1">
          <mxGeometry width="50" height="50" relative="1" as="geometry">
            <mxPoint x="10" y="14" as="sourcePoint" />
            <mxPoint x="10" as="targetPoint" />
          </mxGeometry>
        </mxCell>
        <mxCell id="kiROTx1vgatypAMxlg51-108" value="Relational Database Design.&lt;div&gt;&lt;br&gt;&lt;/div&gt;&lt;div&gt;&lt;b&gt;&lt;u&gt;Operation&lt;/u&gt;&lt;/b&gt;&lt;/div&gt;&lt;div&gt;&lt;b&gt;&lt;u&gt;&lt;span style=&quot;white-space: pre;&quot;&gt;&#x9;&lt;/span&gt;&lt;span style=&quot;white-space: pre;&quot;&gt;&#x9;&lt;/span&gt;&lt;br&gt;&lt;/u&gt;&lt;/b&gt;&lt;/div&gt;&lt;div&gt;&lt;b&gt;Insert&lt;br&gt;&lt;/b&gt;&lt;/div&gt;&lt;div&gt;&lt;b&gt;Update&lt;/b&gt;&lt;/div&gt;&lt;div&gt;&lt;b&gt;Delete&lt;/b&gt;&lt;/div&gt;" style="text;html=1;align=center;verticalAlign=middle;resizable=0;points=[];autosize=1;strokeColor=none;fillColor=none;" parent="1" vertex="1">
          <mxGeometry x="10" y="1190" width="180" height="110" as="geometry" />
        </mxCell>
        <mxCell id="kiROTx1vgatypAMxlg51-109" value="&lt;b&gt;&lt;u&gt;Anomaly [Deviation form the norm]&lt;/u&gt;&lt;/b&gt;&lt;div&gt;&lt;b&gt;&lt;u&gt;&lt;br&gt;&lt;/u&gt;&lt;/b&gt;&lt;/div&gt;&lt;div&gt;* Insertion Anomaly&lt;/div&gt;&lt;div&gt;* Update Anomaly&lt;br&gt;&lt;/div&gt;&lt;div&gt;* Deletion Anomaly&lt;br&gt;&lt;/div&gt;&lt;div&gt;&lt;br&gt;&lt;/div&gt;" style="text;html=1;align=center;verticalAlign=middle;resizable=0;points=[];autosize=1;strokeColor=none;fillColor=none;" parent="1" vertex="1">
          <mxGeometry x="20" y="1320" width="220" height="100" as="geometry" />
        </mxCell>
        <mxCell id="kiROTx1vgatypAMxlg51-110" value="Assets" style="childLayout=tableLayout;recursiveResize=0;strokeColor=#98bf21;fillColor=#A7C942;shadow=1;fontColor=#000000;" parent="1" vertex="1">
          <mxGeometry x="50" y="1430" width="570" height="233" as="geometry" />
        </mxCell>
        <mxCell id="kiROTx1vgatypAMxlg51-111" style="shape=tableRow;horizontal=0;startSize=0;swimlaneHead=0;swimlaneBody=0;top=0;left=0;bottom=0;right=0;dropTarget=0;collapsible=0;recursiveResize=0;expand=0;fontStyle=0;strokeColor=inherit;fillColor=#ffffff;fontColor=#000000;" parent="kiROTx1vgatypAMxlg51-110" vertex="1">
          <mxGeometry width="570" height="40" as="geometry" />
        </mxCell>
        <mxCell id="kiROTx1vgatypAMxlg51-112" value="InstructorID" style="connectable=0;recursiveResize=0;strokeColor=inherit;fillColor=#A7C942;align=center;fontStyle=1;fontColor=#000000;html=1;" parent="kiROTx1vgatypAMxlg51-111" vertex="1">
          <mxGeometry width="114" height="40" as="geometry">
            <mxRectangle width="114" height="40" as="alternateBounds" />
          </mxGeometry>
        </mxCell>
        <mxCell id="kiROTx1vgatypAMxlg51-113" value="InstructionName" style="connectable=0;recursiveResize=0;strokeColor=inherit;fillColor=#A7C942;align=center;fontStyle=1;fontColor=#000000;html=1;" parent="kiROTx1vgatypAMxlg51-111" vertex="1">
          <mxGeometry x="114" width="115" height="40" as="geometry">
            <mxRectangle width="115" height="40" as="alternateBounds" />
          </mxGeometry>
        </mxCell>
        <mxCell id="kiROTx1vgatypAMxlg51-114" value="Salary" style="connectable=0;recursiveResize=0;strokeColor=inherit;fillColor=#A7C942;align=center;fontStyle=1;fontColor=#000000;html=1;" parent="kiROTx1vgatypAMxlg51-111" vertex="1">
          <mxGeometry x="229" width="111" height="40" as="geometry">
            <mxRectangle width="111" height="40" as="alternateBounds" />
          </mxGeometry>
        </mxCell>
        <mxCell id="12" value="Dept" style="connectable=0;recursiveResize=0;strokeColor=inherit;fillColor=#A7C942;align=center;fontStyle=1;fontColor=#000000;html=1;" parent="kiROTx1vgatypAMxlg51-111" vertex="1">
          <mxGeometry x="340" width="116" height="40" as="geometry">
            <mxRectangle width="116" height="40" as="alternateBounds" />
          </mxGeometry>
        </mxCell>
        <mxCell id="17" value="Building" style="connectable=0;recursiveResize=0;strokeColor=inherit;fillColor=#A7C942;align=center;fontStyle=1;fontColor=#000000;html=1;" parent="kiROTx1vgatypAMxlg51-111" vertex="1">
          <mxGeometry x="456" width="114" height="40" as="geometry">
            <mxRectangle width="114" height="40" as="alternateBounds" />
          </mxGeometry>
        </mxCell>
        <mxCell id="kiROTx1vgatypAMxlg51-115" value="" style="shape=tableRow;horizontal=0;startSize=0;swimlaneHead=0;swimlaneBody=0;top=0;left=0;bottom=0;right=0;dropTarget=0;collapsible=0;recursiveResize=0;expand=0;fontStyle=0;strokeColor=inherit;fillColor=#ffffff;fontColor=#000000;" parent="kiROTx1vgatypAMxlg51-110" vertex="1">
          <mxGeometry y="40" width="570" height="39" as="geometry" />
        </mxCell>
        <mxCell id="kiROTx1vgatypAMxlg51-116" value="1" style="connectable=0;recursiveResize=0;strokeColor=inherit;fillColor=inherit;align=center;whiteSpace=wrap;html=1;fontColor=#000000;" parent="kiROTx1vgatypAMxlg51-115" vertex="1">
          <mxGeometry width="114" height="39" as="geometry">
            <mxRectangle width="114" height="39" as="alternateBounds" />
          </mxGeometry>
        </mxCell>
        <mxCell id="kiROTx1vgatypAMxlg51-117" value="A" style="connectable=0;recursiveResize=0;strokeColor=inherit;fillColor=inherit;align=center;whiteSpace=wrap;html=1;fontColor=#000000;" parent="kiROTx1vgatypAMxlg51-115" vertex="1">
          <mxGeometry x="114" width="115" height="39" as="geometry">
            <mxRectangle width="115" height="39" as="alternateBounds" />
          </mxGeometry>
        </mxCell>
        <mxCell id="kiROTx1vgatypAMxlg51-118" value="40k" style="connectable=0;recursiveResize=0;strokeColor=inherit;fillColor=inherit;align=center;whiteSpace=wrap;html=1;fontColor=#000000;" parent="kiROTx1vgatypAMxlg51-115" vertex="1">
          <mxGeometry x="229" width="111" height="39" as="geometry">
            <mxRectangle width="111" height="39" as="alternateBounds" />
          </mxGeometry>
        </mxCell>
        <mxCell id="13" value="EEE" style="connectable=0;recursiveResize=0;strokeColor=inherit;fillColor=inherit;align=center;whiteSpace=wrap;html=1;fontColor=#000000;" parent="kiROTx1vgatypAMxlg51-115" vertex="1">
          <mxGeometry x="340" width="116" height="39" as="geometry">
            <mxRectangle width="116" height="39" as="alternateBounds" />
          </mxGeometry>
        </mxCell>
        <mxCell id="18" value="1" style="connectable=0;recursiveResize=0;strokeColor=inherit;fillColor=inherit;align=center;whiteSpace=wrap;html=1;fontColor=#000000;" parent="kiROTx1vgatypAMxlg51-115" vertex="1">
          <mxGeometry x="456" width="114" height="39" as="geometry">
            <mxRectangle width="114" height="39" as="alternateBounds" />
          </mxGeometry>
        </mxCell>
        <mxCell id="kiROTx1vgatypAMxlg51-119" value="" style="shape=tableRow;horizontal=0;startSize=0;swimlaneHead=0;swimlaneBody=0;top=0;left=0;bottom=0;right=0;dropTarget=0;collapsible=0;recursiveResize=0;expand=0;fontStyle=1;strokeColor=inherit;fillColor=#EAF2D3;fontColor=#000000;" parent="kiROTx1vgatypAMxlg51-110" vertex="1">
          <mxGeometry y="79" width="570" height="38" as="geometry" />
        </mxCell>
        <mxCell id="kiROTx1vgatypAMxlg51-120" value="2" style="connectable=0;recursiveResize=0;strokeColor=inherit;fillColor=inherit;whiteSpace=wrap;html=1;fontColor=#000000;" parent="kiROTx1vgatypAMxlg51-119" vertex="1">
          <mxGeometry width="114" height="38" as="geometry">
            <mxRectangle width="114" height="38" as="alternateBounds" />
          </mxGeometry>
        </mxCell>
        <mxCell id="kiROTx1vgatypAMxlg51-121" value="B" style="connectable=0;recursiveResize=0;strokeColor=inherit;fillColor=inherit;whiteSpace=wrap;html=1;fontColor=#000000;" parent="kiROTx1vgatypAMxlg51-119" vertex="1">
          <mxGeometry x="114" width="115" height="38" as="geometry">
            <mxRectangle width="115" height="38" as="alternateBounds" />
          </mxGeometry>
        </mxCell>
        <mxCell id="kiROTx1vgatypAMxlg51-122" value="35k" style="connectable=0;recursiveResize=0;strokeColor=inherit;fillColor=inherit;whiteSpace=wrap;html=1;fontColor=#000000;" parent="kiROTx1vgatypAMxlg51-119" vertex="1">
          <mxGeometry x="229" width="111" height="38" as="geometry">
            <mxRectangle width="111" height="38" as="alternateBounds" />
          </mxGeometry>
        </mxCell>
        <mxCell id="14" value="CSE" style="connectable=0;recursiveResize=0;strokeColor=inherit;fillColor=inherit;whiteSpace=wrap;html=1;fontColor=#000000;" parent="kiROTx1vgatypAMxlg51-119" vertex="1">
          <mxGeometry x="340" width="116" height="38" as="geometry">
            <mxRectangle width="116" height="38" as="alternateBounds" />
          </mxGeometry>
        </mxCell>
        <mxCell id="19" value="1" style="connectable=0;recursiveResize=0;strokeColor=inherit;fillColor=inherit;whiteSpace=wrap;html=1;fontColor=#000000;" parent="kiROTx1vgatypAMxlg51-119" vertex="1">
          <mxGeometry x="456" width="114" height="38" as="geometry">
            <mxRectangle width="114" height="38" as="alternateBounds" />
          </mxGeometry>
        </mxCell>
        <mxCell id="kiROTx1vgatypAMxlg51-123" value="" style="shape=tableRow;horizontal=0;startSize=0;swimlaneHead=0;swimlaneBody=0;top=0;left=0;bottom=0;right=0;dropTarget=0;collapsible=0;recursiveResize=0;expand=0;fontStyle=0;strokeColor=inherit;fillColor=#ffffff;fontColor=#000000;" parent="kiROTx1vgatypAMxlg51-110" vertex="1">
          <mxGeometry y="117" width="570" height="40" as="geometry" />
        </mxCell>
        <mxCell id="kiROTx1vgatypAMxlg51-124" value="3" style="connectable=0;recursiveResize=0;strokeColor=inherit;fillColor=inherit;fontStyle=0;align=center;whiteSpace=wrap;html=1;fontColor=#000000;" parent="kiROTx1vgatypAMxlg51-123" vertex="1">
          <mxGeometry width="114" height="40" as="geometry">
            <mxRectangle width="114" height="40" as="alternateBounds" />
          </mxGeometry>
        </mxCell>
        <mxCell id="kiROTx1vgatypAMxlg51-125" value="C" style="connectable=0;recursiveResize=0;strokeColor=inherit;fillColor=inherit;fontStyle=0;align=center;whiteSpace=wrap;html=1;fontColor=#000000;" parent="kiROTx1vgatypAMxlg51-123" vertex="1">
          <mxGeometry x="114" width="115" height="40" as="geometry">
            <mxRectangle width="115" height="40" as="alternateBounds" />
          </mxGeometry>
        </mxCell>
        <mxCell id="kiROTx1vgatypAMxlg51-126" value="75k" style="connectable=0;recursiveResize=0;strokeColor=inherit;fillColor=inherit;fontStyle=0;align=center;whiteSpace=wrap;html=1;fontColor=#000000;" parent="kiROTx1vgatypAMxlg51-123" vertex="1">
          <mxGeometry x="229" width="111" height="40" as="geometry">
            <mxRectangle width="111" height="40" as="alternateBounds" />
          </mxGeometry>
        </mxCell>
        <mxCell id="15" value="BBA" style="connectable=0;recursiveResize=0;strokeColor=inherit;fillColor=inherit;fontStyle=0;align=center;whiteSpace=wrap;html=1;fontColor=#000000;" parent="kiROTx1vgatypAMxlg51-123" vertex="1">
          <mxGeometry x="340" width="116" height="40" as="geometry">
            <mxRectangle width="116" height="40" as="alternateBounds" />
          </mxGeometry>
        </mxCell>
        <mxCell id="20" value="4" style="connectable=0;recursiveResize=0;strokeColor=inherit;fillColor=inherit;fontStyle=0;align=center;whiteSpace=wrap;html=1;fontColor=#000000;" parent="kiROTx1vgatypAMxlg51-123" vertex="1">
          <mxGeometry x="456" width="114" height="40" as="geometry">
            <mxRectangle width="114" height="40" as="alternateBounds" />
          </mxGeometry>
        </mxCell>
        <mxCell id="kiROTx1vgatypAMxlg51-127" value="" style="shape=tableRow;horizontal=0;startSize=0;swimlaneHead=0;swimlaneBody=0;top=0;left=0;bottom=0;right=0;dropTarget=0;collapsible=0;recursiveResize=0;expand=0;fontStyle=1;strokeColor=inherit;fillColor=#EAF2D3;fontColor=#000000;" parent="kiROTx1vgatypAMxlg51-110" vertex="1">
          <mxGeometry y="157" width="570" height="38" as="geometry" />
        </mxCell>
        <mxCell id="kiROTx1vgatypAMxlg51-128" value="4" style="connectable=0;recursiveResize=0;strokeColor=inherit;fillColor=inherit;whiteSpace=wrap;html=1;fontColor=#000000;" parent="kiROTx1vgatypAMxlg51-127" vertex="1">
          <mxGeometry width="114" height="38" as="geometry">
            <mxRectangle width="114" height="38" as="alternateBounds" />
          </mxGeometry>
        </mxCell>
        <mxCell id="kiROTx1vgatypAMxlg51-129" value="D" style="connectable=0;recursiveResize=0;strokeColor=inherit;fillColor=inherit;whiteSpace=wrap;html=1;fontColor=#000000;" parent="kiROTx1vgatypAMxlg51-127" vertex="1">
          <mxGeometry x="114" width="115" height="38" as="geometry">
            <mxRectangle width="115" height="38" as="alternateBounds" />
          </mxGeometry>
        </mxCell>
        <mxCell id="kiROTx1vgatypAMxlg51-130" value="100k" style="connectable=0;recursiveResize=0;strokeColor=inherit;fillColor=inherit;whiteSpace=wrap;html=1;fontColor=#000000;" parent="kiROTx1vgatypAMxlg51-127" vertex="1">
          <mxGeometry x="229" width="111" height="38" as="geometry">
            <mxRectangle width="111" height="38" as="alternateBounds" />
          </mxGeometry>
        </mxCell>
        <mxCell id="16" value="CSE" style="connectable=0;recursiveResize=0;strokeColor=inherit;fillColor=inherit;whiteSpace=wrap;html=1;fontColor=#000000;" parent="kiROTx1vgatypAMxlg51-127" vertex="1">
          <mxGeometry x="340" width="116" height="38" as="geometry">
            <mxRectangle width="116" height="38" as="alternateBounds" />
          </mxGeometry>
        </mxCell>
        <mxCell id="21" value="1" style="connectable=0;recursiveResize=0;strokeColor=inherit;fillColor=inherit;whiteSpace=wrap;html=1;fontColor=#000000;" parent="kiROTx1vgatypAMxlg51-127" vertex="1">
          <mxGeometry x="456" width="114" height="38" as="geometry">
            <mxRectangle width="114" height="38" as="alternateBounds" />
          </mxGeometry>
        </mxCell>
        <mxCell id="0HeSK_JTG-pXUbnhtXeK-101" value="" style="shape=tableRow;horizontal=0;startSize=0;swimlaneHead=0;swimlaneBody=0;top=0;left=0;bottom=0;right=0;dropTarget=0;collapsible=0;recursiveResize=0;expand=0;fontStyle=1;strokeColor=inherit;fillColor=#EAF2D3;fontColor=#000000;" parent="kiROTx1vgatypAMxlg51-110" vertex="1">
          <mxGeometry y="195" width="570" height="38" as="geometry" />
        </mxCell>
        <mxCell id="0HeSK_JTG-pXUbnhtXeK-102" value="5" style="connectable=0;recursiveResize=0;strokeColor=inherit;fillColor=inherit;whiteSpace=wrap;html=1;fontColor=#000000;" parent="0HeSK_JTG-pXUbnhtXeK-101" vertex="1">
          <mxGeometry width="114" height="38" as="geometry">
            <mxRectangle width="114" height="38" as="alternateBounds" />
          </mxGeometry>
        </mxCell>
        <mxCell id="0HeSK_JTG-pXUbnhtXeK-103" value="F" style="connectable=0;recursiveResize=0;strokeColor=inherit;fillColor=inherit;whiteSpace=wrap;html=1;fontColor=#000000;" parent="0HeSK_JTG-pXUbnhtXeK-101" vertex="1">
          <mxGeometry x="114" width="115" height="38" as="geometry">
            <mxRectangle width="115" height="38" as="alternateBounds" />
          </mxGeometry>
        </mxCell>
        <mxCell id="0HeSK_JTG-pXUbnhtXeK-104" value="50k" style="connectable=0;recursiveResize=0;strokeColor=inherit;fillColor=inherit;whiteSpace=wrap;html=1;fontColor=#000000;" parent="0HeSK_JTG-pXUbnhtXeK-101" vertex="1">
          <mxGeometry x="229" width="111" height="38" as="geometry">
            <mxRectangle width="111" height="38" as="alternateBounds" />
          </mxGeometry>
        </mxCell>
        <mxCell id="0HeSK_JTG-pXUbnhtXeK-105" value="CSE" style="connectable=0;recursiveResize=0;strokeColor=inherit;fillColor=inherit;whiteSpace=wrap;html=1;fontColor=#000000;" parent="0HeSK_JTG-pXUbnhtXeK-101" vertex="1">
          <mxGeometry x="340" width="116" height="38" as="geometry">
            <mxRectangle width="116" height="38" as="alternateBounds" />
          </mxGeometry>
        </mxCell>
        <mxCell id="0HeSK_JTG-pXUbnhtXeK-106" value="1" style="connectable=0;recursiveResize=0;strokeColor=inherit;fillColor=inherit;whiteSpace=wrap;html=1;fontColor=#000000;" parent="0HeSK_JTG-pXUbnhtXeK-101" vertex="1">
          <mxGeometry x="456" width="114" height="38" as="geometry">
            <mxRectangle width="114" height="38" as="alternateBounds" />
          </mxGeometry>
        </mxCell>
        <mxCell id="kiROTx1vgatypAMxlg51-178" value="&lt;font style=&quot;font-size: 14px;&quot;&gt;Insertion Anomaly: New Rows create duplicate data or certain facts&amp;nbsp;&lt;/font&gt;&lt;div&gt;&lt;font size=&quot;3&quot;&gt;cannot&amp;nbsp;&lt;span style=&quot;background-color: initial;&quot;&gt;be recorded&lt;/span&gt;&lt;/font&gt;&lt;div&gt;&lt;font size=&quot;3&quot;&gt;Update Anomaly: Changing data in a row changes in other rows&amp;nbsp;&lt;/font&gt;&lt;/div&gt;&lt;/div&gt;&lt;div&gt;&lt;font size=&quot;3&quot;&gt;Deletion Anomaly: Deleted rows results in the loss of data needed&lt;/font&gt;&lt;/div&gt;&lt;div&gt;&lt;font size=&quot;3&quot;&gt;for future rows.&lt;/font&gt;&lt;/div&gt;" style="text;html=1;align=center;verticalAlign=middle;resizable=0;points=[];autosize=1;strokeColor=none;fillColor=none;" parent="1" vertex="1">
          <mxGeometry x="280" y="1220" width="490" height="110" as="geometry" />
        </mxCell>
        <mxCell id="6" value="&lt;font style=&quot;font-size: 14px;&quot;&gt;Functional Dependency: The value of the determinant decides/determines the value of another attribute.&lt;/font&gt;" style="text;html=1;align=center;verticalAlign=middle;resizable=0;points=[];autosize=1;strokeColor=none;fillColor=none;" parent="1" vertex="1">
          <mxGeometry y="1664" width="670" height="30" as="geometry" />
        </mxCell>
        <mxCell id="22" value="&lt;font style=&quot;font-size: 36px;&quot;&gt;X&lt;/font&gt;" style="text;html=1;align=center;verticalAlign=middle;resizable=0;points=[];autosize=1;strokeColor=none;fillColor=none;fontSize=14;" parent="1" vertex="1">
          <mxGeometry x="105" y="1690" width="50" height="60" as="geometry" />
        </mxCell>
        <mxCell id="23" value="" style="shape=singleArrow;whiteSpace=wrap;html=1;arrowWidth=0.4142961774553896;arrowSize=0.3042414202008916;fontSize=36;" parent="1" vertex="1">
          <mxGeometry x="158" y="1706" width="100" height="20" as="geometry" />
        </mxCell>
        <mxCell id="24" value="&lt;font style=&quot;font-size: 36px;&quot;&gt;Y&lt;/font&gt;" style="text;html=1;align=center;verticalAlign=middle;resizable=0;points=[];autosize=1;strokeColor=none;fillColor=none;fontSize=14;" parent="1" vertex="1">
          <mxGeometry x="260" y="1686" width="50" height="60" as="geometry" />
        </mxCell>
        <mxCell id="25" value="" style="curved=1;endArrow=classic;html=1;fontSize=36;exitX=0.806;exitY=1.021;exitDx=0;exitDy=0;exitPerimeter=0;" parent="1" source="22" edge="1">
          <mxGeometry width="50" height="50" relative="1" as="geometry">
            <mxPoint x="150" y="1760" as="sourcePoint" />
            <mxPoint x="180" y="1810" as="targetPoint" />
            <Array as="points">
              <mxPoint x="130" y="1810" />
              <mxPoint x="180" y="1760" />
            </Array>
          </mxGeometry>
        </mxCell>
        <mxCell id="28" value="Determinant" style="text;html=1;align=center;verticalAlign=middle;resizable=0;points=[];autosize=1;strokeColor=none;fillColor=none;fontSize=12;" parent="1" vertex="1">
          <mxGeometry x="165" y="1815" width="90" height="30" as="geometry" />
        </mxCell>
        <mxCell id="29" value="Y is functionally dependent on X&lt;br&gt;[ if we know the value of x, there can be only one value of y]" style="text;html=1;align=center;verticalAlign=middle;resizable=0;points=[];autosize=1;strokeColor=none;fillColor=none;fontSize=12;" parent="1" vertex="1">
          <mxGeometry x="50" y="1840" width="340" height="40" as="geometry" />
        </mxCell>
        <mxCell id="30" value="Assets" style="childLayout=tableLayout;recursiveResize=0;strokeColor=#98bf21;fillColor=#A7C942;shadow=1;fontSize=12;fontColor=#000000;" parent="1" vertex="1">
          <mxGeometry x="20" y="1920" width="330" height="160" as="geometry" />
        </mxCell>
        <mxCell id="31" style="shape=tableRow;horizontal=0;startSize=0;swimlaneHead=0;swimlaneBody=0;top=0;left=0;bottom=0;right=0;dropTarget=0;collapsible=0;recursiveResize=0;expand=0;fontStyle=0;strokeColor=inherit;fillColor=#ffffff;fontSize=12;fontColor=#000000;" parent="30" vertex="1">
          <mxGeometry width="330" height="24" as="geometry" />
        </mxCell>
        <mxCell id="32" value="ID" style="connectable=0;recursiveResize=0;strokeColor=inherit;fillColor=#A7C942;align=center;fontStyle=1;fontColor=#000000;html=1;fontSize=12;" parent="31" vertex="1">
          <mxGeometry width="66" height="24" as="geometry">
            <mxRectangle width="66" height="24" as="alternateBounds" />
          </mxGeometry>
        </mxCell>
        <mxCell id="33" value="Name" style="connectable=0;recursiveResize=0;strokeColor=inherit;fillColor=#A7C942;align=center;fontStyle=1;fontColor=#000000;html=1;fontSize=12;" parent="31" vertex="1">
          <mxGeometry x="66" width="66" height="24" as="geometry">
            <mxRectangle width="66" height="24" as="alternateBounds" />
          </mxGeometry>
        </mxCell>
        <mxCell id="34" value="Marks" style="connectable=0;recursiveResize=0;strokeColor=inherit;fillColor=#A7C942;align=center;fontStyle=1;fontColor=#000000;html=1;fontSize=12;" parent="31" vertex="1">
          <mxGeometry x="132" width="66" height="24" as="geometry">
            <mxRectangle width="66" height="24" as="alternateBounds" />
          </mxGeometry>
        </mxCell>
        <mxCell id="51" value="Dept" style="connectable=0;recursiveResize=0;strokeColor=inherit;fillColor=#A7C942;align=center;fontStyle=1;fontColor=#000000;html=1;fontSize=12;" parent="31" vertex="1">
          <mxGeometry x="198" width="66" height="24" as="geometry">
            <mxRectangle width="66" height="24" as="alternateBounds" />
          </mxGeometry>
        </mxCell>
        <mxCell id="56" value="Course" style="connectable=0;recursiveResize=0;strokeColor=inherit;fillColor=#A7C942;align=center;fontStyle=1;fontColor=#000000;html=1;fontSize=12;" parent="31" vertex="1">
          <mxGeometry x="264" width="66" height="24" as="geometry">
            <mxRectangle width="66" height="24" as="alternateBounds" />
          </mxGeometry>
        </mxCell>
        <mxCell id="35" value="" style="shape=tableRow;horizontal=0;startSize=0;swimlaneHead=0;swimlaneBody=0;top=0;left=0;bottom=0;right=0;dropTarget=0;collapsible=0;recursiveResize=0;expand=0;fontStyle=0;strokeColor=inherit;fillColor=#ffffff;fontSize=12;fontColor=#000000;" parent="30" vertex="1">
          <mxGeometry y="24" width="330" height="23" as="geometry" />
        </mxCell>
        <mxCell id="36" value="1" style="connectable=0;recursiveResize=0;strokeColor=inherit;fillColor=inherit;align=center;whiteSpace=wrap;html=1;fontSize=12;fontColor=#000000;" parent="35" vertex="1">
          <mxGeometry width="66" height="23" as="geometry">
            <mxRectangle width="66" height="23" as="alternateBounds" />
          </mxGeometry>
        </mxCell>
        <mxCell id="37" value="Alice" style="connectable=0;recursiveResize=0;strokeColor=inherit;fillColor=inherit;align=center;whiteSpace=wrap;html=1;fontSize=12;fontColor=#000000;" parent="35" vertex="1">
          <mxGeometry x="66" width="66" height="23" as="geometry">
            <mxRectangle width="66" height="23" as="alternateBounds" />
          </mxGeometry>
        </mxCell>
        <mxCell id="38" value="78" style="connectable=0;recursiveResize=0;strokeColor=inherit;fillColor=inherit;align=center;whiteSpace=wrap;html=1;fontSize=12;fontColor=#000000;" parent="35" vertex="1">
          <mxGeometry x="132" width="66" height="23" as="geometry">
            <mxRectangle width="66" height="23" as="alternateBounds" />
          </mxGeometry>
        </mxCell>
        <mxCell id="52" value="CSE" style="connectable=0;recursiveResize=0;strokeColor=inherit;fillColor=inherit;align=center;whiteSpace=wrap;html=1;fontSize=12;fontColor=#000000;" parent="35" vertex="1">
          <mxGeometry x="198" width="66" height="23" as="geometry">
            <mxRectangle width="66" height="23" as="alternateBounds" />
          </mxGeometry>
        </mxCell>
        <mxCell id="57" value="C-101" style="connectable=0;recursiveResize=0;strokeColor=inherit;fillColor=inherit;align=center;whiteSpace=wrap;html=1;fontSize=12;fontColor=#000000;" parent="35" vertex="1">
          <mxGeometry x="264" width="66" height="23" as="geometry">
            <mxRectangle width="66" height="23" as="alternateBounds" />
          </mxGeometry>
        </mxCell>
        <mxCell id="39" value="" style="shape=tableRow;horizontal=0;startSize=0;swimlaneHead=0;swimlaneBody=0;top=0;left=0;bottom=0;right=0;dropTarget=0;collapsible=0;recursiveResize=0;expand=0;fontStyle=1;strokeColor=inherit;fillColor=#EAF2D3;fontSize=12;fontColor=#000000;" parent="30" vertex="1">
          <mxGeometry y="47" width="330" height="22" as="geometry" />
        </mxCell>
        <mxCell id="40" value="2" style="connectable=0;recursiveResize=0;strokeColor=inherit;fillColor=inherit;whiteSpace=wrap;html=1;fontSize=12;fontColor=#000000;" parent="39" vertex="1">
          <mxGeometry width="66" height="22" as="geometry">
            <mxRectangle width="66" height="22" as="alternateBounds" />
          </mxGeometry>
        </mxCell>
        <mxCell id="41" value="John" style="connectable=0;recursiveResize=0;strokeColor=inherit;fillColor=inherit;whiteSpace=wrap;html=1;fontSize=12;fontColor=#000000;" parent="39" vertex="1">
          <mxGeometry x="66" width="66" height="22" as="geometry">
            <mxRectangle width="66" height="22" as="alternateBounds" />
          </mxGeometry>
        </mxCell>
        <mxCell id="42" value="60" style="connectable=0;recursiveResize=0;strokeColor=inherit;fillColor=inherit;whiteSpace=wrap;html=1;fontSize=12;fontColor=#000000;" parent="39" vertex="1">
          <mxGeometry x="132" width="66" height="22" as="geometry">
            <mxRectangle width="66" height="22" as="alternateBounds" />
          </mxGeometry>
        </mxCell>
        <mxCell id="53" value="EEE" style="connectable=0;recursiveResize=0;strokeColor=inherit;fillColor=inherit;whiteSpace=wrap;html=1;fontSize=12;fontColor=#000000;" parent="39" vertex="1">
          <mxGeometry x="198" width="66" height="22" as="geometry">
            <mxRectangle width="66" height="22" as="alternateBounds" />
          </mxGeometry>
        </mxCell>
        <mxCell id="58" value="C-101" style="connectable=0;recursiveResize=0;strokeColor=inherit;fillColor=inherit;whiteSpace=wrap;html=1;fontSize=12;fontColor=#000000;" parent="39" vertex="1">
          <mxGeometry x="264" width="66" height="22" as="geometry">
            <mxRectangle width="66" height="22" as="alternateBounds" />
          </mxGeometry>
        </mxCell>
        <mxCell id="43" value="" style="shape=tableRow;horizontal=0;startSize=0;swimlaneHead=0;swimlaneBody=0;top=0;left=0;bottom=0;right=0;dropTarget=0;collapsible=0;recursiveResize=0;expand=0;fontStyle=0;strokeColor=inherit;fillColor=#ffffff;fontSize=12;fontColor=#000000;" parent="30" vertex="1">
          <mxGeometry y="69" width="330" height="24" as="geometry" />
        </mxCell>
        <mxCell id="44" value="3" style="connectable=0;recursiveResize=0;strokeColor=inherit;fillColor=inherit;fontStyle=0;align=center;whiteSpace=wrap;html=1;fontSize=12;fontColor=#000000;" parent="43" vertex="1">
          <mxGeometry width="66" height="24" as="geometry">
            <mxRectangle width="66" height="24" as="alternateBounds" />
          </mxGeometry>
        </mxCell>
        <mxCell id="45" value="Alice" style="connectable=0;recursiveResize=0;strokeColor=inherit;fillColor=inherit;fontStyle=0;align=center;whiteSpace=wrap;html=1;fontSize=12;fontColor=#000000;" parent="43" vertex="1">
          <mxGeometry x="66" width="66" height="24" as="geometry">
            <mxRectangle width="66" height="24" as="alternateBounds" />
          </mxGeometry>
        </mxCell>
        <mxCell id="46" value="78" style="connectable=0;recursiveResize=0;strokeColor=inherit;fillColor=inherit;fontStyle=0;align=center;whiteSpace=wrap;html=1;fontSize=12;fontColor=#000000;" parent="43" vertex="1">
          <mxGeometry x="132" width="66" height="24" as="geometry">
            <mxRectangle width="66" height="24" as="alternateBounds" />
          </mxGeometry>
        </mxCell>
        <mxCell id="54" value="CSE" style="connectable=0;recursiveResize=0;strokeColor=inherit;fillColor=inherit;fontStyle=0;align=center;whiteSpace=wrap;html=1;fontSize=12;fontColor=#000000;" parent="43" vertex="1">
          <mxGeometry x="198" width="66" height="24" as="geometry">
            <mxRectangle width="66" height="24" as="alternateBounds" />
          </mxGeometry>
        </mxCell>
        <mxCell id="59" value="C-201" style="connectable=0;recursiveResize=0;strokeColor=inherit;fillColor=inherit;fontStyle=0;align=center;whiteSpace=wrap;html=1;fontSize=12;fontColor=#000000;" parent="43" vertex="1">
          <mxGeometry x="264" width="66" height="24" as="geometry">
            <mxRectangle width="66" height="24" as="alternateBounds" />
          </mxGeometry>
        </mxCell>
        <mxCell id="61" value="" style="shape=tableRow;horizontal=0;startSize=0;swimlaneHead=0;swimlaneBody=0;top=0;left=0;bottom=0;right=0;dropTarget=0;collapsible=0;recursiveResize=0;expand=0;fontStyle=1;strokeColor=inherit;fillColor=#EAF2D3;fontSize=12;fontColor=#000000;" parent="30" vertex="1">
          <mxGeometry y="93" width="330" height="22" as="geometry" />
        </mxCell>
        <mxCell id="62" value="4" style="connectable=0;recursiveResize=0;strokeColor=inherit;fillColor=inherit;whiteSpace=wrap;html=1;fontSize=12;fontColor=#000000;" parent="61" vertex="1">
          <mxGeometry width="66" height="22" as="geometry">
            <mxRectangle width="66" height="22" as="alternateBounds" />
          </mxGeometry>
        </mxCell>
        <mxCell id="63" value="John" style="connectable=0;recursiveResize=0;strokeColor=inherit;fillColor=inherit;whiteSpace=wrap;html=1;fontSize=12;fontColor=#000000;" parent="61" vertex="1">
          <mxGeometry x="66" width="66" height="22" as="geometry">
            <mxRectangle width="66" height="22" as="alternateBounds" />
          </mxGeometry>
        </mxCell>
        <mxCell id="64" value="60" style="connectable=0;recursiveResize=0;strokeColor=inherit;fillColor=inherit;whiteSpace=wrap;html=1;fontSize=12;fontColor=#000000;" parent="61" vertex="1">
          <mxGeometry x="132" width="66" height="22" as="geometry">
            <mxRectangle width="66" height="22" as="alternateBounds" />
          </mxGeometry>
        </mxCell>
        <mxCell id="65" value="EEE" style="connectable=0;recursiveResize=0;strokeColor=inherit;fillColor=inherit;whiteSpace=wrap;html=1;fontSize=12;fontColor=#000000;" parent="61" vertex="1">
          <mxGeometry x="198" width="66" height="22" as="geometry">
            <mxRectangle width="66" height="22" as="alternateBounds" />
          </mxGeometry>
        </mxCell>
        <mxCell id="66" value="C-303" style="connectable=0;recursiveResize=0;strokeColor=inherit;fillColor=inherit;whiteSpace=wrap;html=1;fontSize=12;fontColor=#000000;" parent="61" vertex="1">
          <mxGeometry x="264" width="66" height="22" as="geometry">
            <mxRectangle width="66" height="22" as="alternateBounds" />
          </mxGeometry>
        </mxCell>
        <mxCell id="67" value="" style="shape=tableRow;horizontal=0;startSize=0;swimlaneHead=0;swimlaneBody=0;top=0;left=0;bottom=0;right=0;dropTarget=0;collapsible=0;recursiveResize=0;expand=0;fontStyle=1;strokeColor=inherit;fillColor=#EAF2D3;fontSize=12;fontColor=#000000;" parent="30" vertex="1">
          <mxGeometry y="115" width="330" height="23" as="geometry" />
        </mxCell>
        <mxCell id="68" value="5" style="connectable=0;recursiveResize=0;strokeColor=inherit;fillColor=inherit;whiteSpace=wrap;html=1;fontSize=12;fontColor=#000000;" parent="67" vertex="1">
          <mxGeometry width="66" height="23" as="geometry">
            <mxRectangle width="66" height="23" as="alternateBounds" />
          </mxGeometry>
        </mxCell>
        <mxCell id="69" value="Becky" style="connectable=0;recursiveResize=0;strokeColor=inherit;fillColor=inherit;whiteSpace=wrap;html=1;fontSize=12;fontColor=#000000;" parent="67" vertex="1">
          <mxGeometry x="66" width="66" height="23" as="geometry">
            <mxRectangle width="66" height="23" as="alternateBounds" />
          </mxGeometry>
        </mxCell>
        <mxCell id="70" value="80" style="connectable=0;recursiveResize=0;strokeColor=inherit;fillColor=inherit;whiteSpace=wrap;html=1;fontSize=12;fontColor=#000000;" parent="67" vertex="1">
          <mxGeometry x="132" width="66" height="23" as="geometry">
            <mxRectangle width="66" height="23" as="alternateBounds" />
          </mxGeometry>
        </mxCell>
        <mxCell id="71" value="BBA" style="connectable=0;recursiveResize=0;strokeColor=inherit;fillColor=inherit;whiteSpace=wrap;html=1;fontSize=12;fontColor=#000000;" parent="67" vertex="1">
          <mxGeometry x="198" width="66" height="23" as="geometry">
            <mxRectangle width="66" height="23" as="alternateBounds" />
          </mxGeometry>
        </mxCell>
        <mxCell id="72" value="C-303" style="connectable=0;recursiveResize=0;strokeColor=inherit;fillColor=inherit;whiteSpace=wrap;html=1;fontSize=12;fontColor=#000000;" parent="67" vertex="1">
          <mxGeometry x="264" width="66" height="23" as="geometry">
            <mxRectangle width="66" height="23" as="alternateBounds" />
          </mxGeometry>
        </mxCell>
        <mxCell id="47" value="" style="shape=tableRow;horizontal=0;startSize=0;swimlaneHead=0;swimlaneBody=0;top=0;left=0;bottom=0;right=0;dropTarget=0;collapsible=0;recursiveResize=0;expand=0;fontStyle=1;strokeColor=inherit;fillColor=#EAF2D3;fontSize=12;fontColor=#000000;" parent="30" vertex="1">
          <mxGeometry y="138" width="330" height="22" as="geometry" />
        </mxCell>
        <mxCell id="48" value="6" style="connectable=0;recursiveResize=0;strokeColor=inherit;fillColor=inherit;whiteSpace=wrap;html=1;fontSize=12;fontColor=#000000;" parent="47" vertex="1">
          <mxGeometry width="66" height="22" as="geometry">
            <mxRectangle width="66" height="22" as="alternateBounds" />
          </mxGeometry>
        </mxCell>
        <mxCell id="49" value="Bob" style="connectable=0;recursiveResize=0;strokeColor=inherit;fillColor=inherit;whiteSpace=wrap;html=1;fontSize=12;fontColor=#000000;" parent="47" vertex="1">
          <mxGeometry x="66" width="66" height="22" as="geometry">
            <mxRectangle width="66" height="22" as="alternateBounds" />
          </mxGeometry>
        </mxCell>
        <mxCell id="50" value="80" style="connectable=0;recursiveResize=0;strokeColor=inherit;fillColor=inherit;whiteSpace=wrap;html=1;fontSize=12;fontColor=#000000;" parent="47" vertex="1">
          <mxGeometry x="132" width="66" height="22" as="geometry">
            <mxRectangle width="66" height="22" as="alternateBounds" />
          </mxGeometry>
        </mxCell>
        <mxCell id="55" value="Law" style="connectable=0;recursiveResize=0;strokeColor=inherit;fillColor=inherit;whiteSpace=wrap;html=1;fontSize=12;fontColor=#000000;" parent="47" vertex="1">
          <mxGeometry x="198" width="66" height="22" as="geometry">
            <mxRectangle width="66" height="22" as="alternateBounds" />
          </mxGeometry>
        </mxCell>
        <mxCell id="60" value="C-201" style="connectable=0;recursiveResize=0;strokeColor=inherit;fillColor=inherit;whiteSpace=wrap;html=1;fontSize=12;fontColor=#000000;" parent="47" vertex="1">
          <mxGeometry x="264" width="66" height="22" as="geometry">
            <mxRectangle width="66" height="22" as="alternateBounds" />
          </mxGeometry>
        </mxCell>
        <mxCell id="90" value="" style="group" parent="1" connectable="0" vertex="1">
          <mxGeometry x="440" y="1985" width="180" height="30" as="geometry" />
        </mxCell>
        <mxCell id="83" value="" style="group" parent="90" connectable="0" vertex="1">
          <mxGeometry width="155" height="30" as="geometry" />
        </mxCell>
        <mxCell id="84" value="Id" style="text;html=1;align=center;verticalAlign=middle;resizable=0;points=[];autosize=1;strokeColor=none;fillColor=none;fontSize=12;fontColor=#FFFFFF;" parent="83" vertex="1">
          <mxGeometry width="30" height="30" as="geometry" />
        </mxCell>
        <mxCell id="85" value="Marks" style="text;html=1;align=center;verticalAlign=middle;resizable=0;points=[];autosize=1;strokeColor=none;fillColor=none;fontSize=12;fontColor=#FFFFFF;" parent="83" vertex="1">
          <mxGeometry x="95" width="60" height="30" as="geometry" />
        </mxCell>
        <mxCell id="86" value="" style="edgeStyle=none;html=1;fontSize=12;fontColor=#FFFFFF;" parent="83" source="84" target="85" edge="1">
          <mxGeometry relative="1" as="geometry" />
        </mxCell>
        <mxCell id="89" value="✅" style="text;html=1;align=center;verticalAlign=middle;resizable=0;points=[];autosize=1;strokeColor=none;fillColor=none;fontSize=12;fontColor=#FFFFFF;" parent="90" vertex="1">
          <mxGeometry x="140" width="40" height="30" as="geometry" />
        </mxCell>
        <mxCell id="91" value="" style="group" parent="1" connectable="0" vertex="1">
          <mxGeometry x="440" y="1930" width="180" height="30" as="geometry" />
        </mxCell>
        <mxCell id="78" value="" style="group" parent="91" connectable="0" vertex="1">
          <mxGeometry width="155" height="30" as="geometry" />
        </mxCell>
        <mxCell id="79" value="Name" style="text;html=1;align=center;verticalAlign=middle;resizable=0;points=[];autosize=1;strokeColor=none;fillColor=none;fontSize=12;fontColor=#FFFFFF;" parent="78" vertex="1">
          <mxGeometry x="-15" width="60" height="30" as="geometry" />
        </mxCell>
        <mxCell id="80" value="Id" style="text;html=1;align=center;verticalAlign=middle;resizable=0;points=[];autosize=1;strokeColor=none;fillColor=none;fontSize=12;fontColor=#FFFFFF;" parent="78" vertex="1">
          <mxGeometry x="110" width="30" height="30" as="geometry" />
        </mxCell>
        <mxCell id="81" value="" style="edgeStyle=none;html=1;fontSize=12;fontColor=#FFFFFF;" parent="78" source="79" target="80" edge="1">
          <mxGeometry relative="1" as="geometry" />
        </mxCell>
        <mxCell id="88" value="❌" style="text;html=1;align=center;verticalAlign=middle;resizable=0;points=[];autosize=1;strokeColor=none;fillColor=none;fontSize=12;fontColor=#FFFFFF;" parent="91" vertex="1">
          <mxGeometry x="140" width="40" height="30" as="geometry" />
        </mxCell>
        <mxCell id="92" value="" style="group" parent="1" connectable="0" vertex="1">
          <mxGeometry x="430" y="1880" width="190" height="30" as="geometry" />
        </mxCell>
        <mxCell id="77" value="" style="group" parent="92" connectable="0" vertex="1">
          <mxGeometry width="155" height="30" as="geometry" />
        </mxCell>
        <mxCell id="73" value="Id" style="text;html=1;align=center;verticalAlign=middle;resizable=0;points=[];autosize=1;strokeColor=none;fillColor=none;fontSize=12;fontColor=#FFFFFF;" parent="77" vertex="1">
          <mxGeometry width="30" height="30" as="geometry" />
        </mxCell>
        <mxCell id="75" value="Name" style="text;html=1;align=center;verticalAlign=middle;resizable=0;points=[];autosize=1;strokeColor=none;fillColor=none;fontSize=12;fontColor=#FFFFFF;" parent="77" vertex="1">
          <mxGeometry x="95" width="60" height="30" as="geometry" />
        </mxCell>
        <mxCell id="76" value="" style="edgeStyle=none;html=1;fontSize=12;fontColor=#FFFFFF;" parent="77" source="73" target="75" edge="1">
          <mxGeometry relative="1" as="geometry" />
        </mxCell>
        <mxCell id="87" value="✅" style="text;html=1;align=center;verticalAlign=middle;resizable=0;points=[];autosize=1;strokeColor=none;fillColor=none;fontSize=12;fontColor=#FFFFFF;" parent="92" vertex="1">
          <mxGeometry x="150" width="40" height="30" as="geometry" />
        </mxCell>
        <mxCell id="95" value="" style="group" parent="1" connectable="0" vertex="1">
          <mxGeometry x="450" y="2030" width="180" height="30" as="geometry" />
        </mxCell>
        <mxCell id="96" value="" style="group" parent="95" connectable="0" vertex="1">
          <mxGeometry width="155" height="30" as="geometry" />
        </mxCell>
        <mxCell id="97" value="Name, Marks" style="text;html=1;align=center;verticalAlign=middle;resizable=0;points=[];autosize=1;strokeColor=none;fillColor=none;fontSize=12;fontColor=#FFFFFF;" parent="96" vertex="1">
          <mxGeometry x="-30" width="90" height="30" as="geometry" />
        </mxCell>
        <mxCell id="98" value="Dept" style="text;html=1;align=center;verticalAlign=middle;resizable=0;points=[];autosize=1;strokeColor=none;fillColor=none;fontSize=12;fontColor=#FFFFFF;" parent="96" vertex="1">
          <mxGeometry x="100" width="50" height="30" as="geometry" />
        </mxCell>
        <mxCell id="99" value="" style="edgeStyle=none;html=1;fontSize=12;fontColor=#FFFFFF;" parent="96" source="97" target="98" edge="1">
          <mxGeometry relative="1" as="geometry" />
        </mxCell>
        <mxCell id="100" value="✅" style="text;html=1;align=center;verticalAlign=middle;resizable=0;points=[];autosize=1;strokeColor=none;fillColor=none;fontSize=12;fontColor=#FFFFFF;" parent="95" vertex="1">
          <mxGeometry x="140" width="40" height="30" as="geometry" />
        </mxCell>
        <mxCell id="kiROTx1vgatypAMxlg51-180" value="&lt;font style=&quot;font-size: 36px;&quot;&gt;Database Class: 29th Oct, 2024&lt;/font&gt;&lt;div&gt;&lt;font style=&quot;font-size: 36px;&quot;&gt;&lt;br&gt;&lt;/font&gt;&lt;/div&gt;" style="text;html=1;align=center;verticalAlign=middle;resizable=0;points=[];autosize=1;strokeColor=none;fillColor=none;" parent="1" vertex="1">
          <mxGeometry x="110" y="20" width="530" height="100" as="geometry" />
        </mxCell>
      </root>
    </mxGraphModel>
  </diagram>
</mxfile>
